<svg id="visual" viewBox="0 0 960 540" width="960" height="540" xmlns="http://www.w3.org/2000/svg" xmlns:xlink="http://www.w3.org/1999/xlink" version="1.1"><rect x="0" y="0" width="960" height="540" fill="#eeeeee"></rect><path d="M0 189L26.7 220.5C53.3 252 106.7 315 160 338.5C213.3 362 266.7 346 320 319C373.3 292 426.7 254 480 257.3C533.3 260.7 586.7 305.3 640 339C693.3 372.7 746.7 395.3 800 417C853.3 438.7 906.7 459.3 933.3 469.7L960 480L960 541L933.3 541C906.7 541 853.3 541 800 541C746.7 541 693.3 541 640 541C586.7 541 533.3 541 480 541C426.7 541 373.3 541 320 541C266.7 541 213.3 541 160 541C106.7 541 53.3 541 26.7 541L0 541Z" fill="#d3d3d3" stroke-linecap="round" stroke-linejoin="miter"></path></svg>