<svg xmlns="http://www.w3.org/2000/svg" xmlns:xlink="http://www.w3.org/1999/xlink" width="500" zoomAndPan="magnify" viewBox="0 0 375 374.999991" height="500" preserveAspectRatio="xMidYMid meet" version="1.0"><defs><g/><clipPath id="1cd63aac12"><path d="M 126 113.480469 L 250 113.480469 L 250 204.230469 L 126 204.230469 Z M 126 113.480469 " clip-rule="nonzero"/></clipPath><clipPath id="a1f0799364"><path d="M 138 136 L 227 136 L 227 204.230469 L 138 204.230469 Z M 138 136 " clip-rule="nonzero"/></clipPath></defs><g clip-path="url(#1cd63aac12)"><path fill="#000000" d="M 165.667969 140.578125 C 171.0625 141.28125 197.605469 143.847656 202.617188 137.332031 C 204.296875 135.160156 208.816406 129.964844 208.816406 129.964844 C 208.816406 129.964844 211.496094 122.597656 213.421875 121.09375 C 215.347656 119.585938 216.851562 119.253906 216.851562 119.253906 C 216.851562 119.253906 221.792969 114.316406 225.558594 113.898438 C 229.324219 113.480469 235.1875 114.652344 235.851562 116.75 C 236.519531 118.847656 236.941406 120.265625 236.941406 120.265625 C 236.941406 120.265625 243.050781 123.03125 245.222656 123.277344 C 247.398438 123.523438 250 124.449219 249.496094 126.203125 C 248.988281 127.953125 247.234375 133.148438 242.457031 134.65625 C 237.679688 136.160156 234.101562 136.285156 233.605469 138.222656 C 233.101562 140.144531 235.765625 146.550781 233.925781 148.304688 C 232.089844 150.054688 229.148438 151.980469 228.902344 154.324219 C 228.65625 156.667969 226.976562 160.765625 224.964844 161.691406 C 222.953125 162.617188 222.617188 164.542969 222.285156 165.789062 C 221.953125 167.046875 221.445312 175.328125 217.433594 177.757812 C 213.410156 180.191406 210.988281 183.289062 211.148438 185.460938 C 211.324219 187.632812 209.273438 199.933594 209.691406 200.945312 C 210.113281 201.945312 213.632812 201.539062 213.964844 202.367188 C 214.296875 203.203125 213.964844 204.214844 213.964844 204.214844 L 206.359375 204.214844 C 206.359375 204.214844 204.074219 203.660156 203.371094 200.882812 C 202.667969 198.109375 200.878906 181.289062 196.210938 181.386719 C 191.53125 181.484375 186.816406 181.386719 184.667969 181.386719 C 183.792969 181.386719 183.519531 181.386719 183.484375 181.386719 L 183.507812 181.386719 C 183.570312 181.363281 183.617188 181.351562 183.679688 181.363281 C 183.878906 181.375 183.472656 181.386719 183.484375 181.386719 C 176.234375 180.203125 170.71875 181.585938 170.71875 181.585938 C 170.71875 181.585938 167.433594 188.445312 163.261719 191.125 C 156.925781 194.601562 150.828125 193.726562 150.828125 193.726562 L 150.433594 200.09375 C 150.433594 200.09375 153.519531 204.230469 152.125 204.230469 L 146.570312 204.230469 C 146.570312 204.230469 144.730469 202.058594 144.558594 200.710938 C 144.382812 199.367188 144.050781 190.976562 144.890625 190.308594 C 145.730469 189.644531 147.398438 186.792969 147.398438 186.792969 C 147.398438 186.792969 144.878906 183.609375 143.546875 183.78125 C 142.199219 183.953125 139.1875 185.285156 136.507812 186.125 C 133.828125 186.964844 129.976562 186.125 129.976562 186.125 C 129.976562 186.125 128.324219 184.769531 127.484375 183.261719 C 126.644531 181.757812 124.804688 180.25 127.65625 178.574219 C 130.507812 176.894531 131.839844 176.230469 134.519531 175.5625 C 137.199219 174.894531 141.382812 171.871094 142.222656 170.875 C 143.0625 169.875 142.050781 169.367188 144.238281 167.527344 C 146.410156 165.691406 146.742188 161.171875 146.914062 158.828125 C 147.089844 156.484375 151.605469 147.773438 155.125 144.589844 C 158.644531 141.417969 160.285156 139.875 165.667969 140.578125 " fill-opacity="1" fill-rule="evenodd"/></g><g clip-path="url(#a1f0799364)"><path fill="#000000" d="M 205.78125 180.867188 C 205.792969 180.882812 206.335938 180.894531 205.78125 180.894531 Z M 164.828125 180.535156 C 164.199219 177.597656 162.445312 176.683594 159.644531 172.195312 C 156.839844 167.714844 159.359375 162.59375 156.136719 157.199219 C 152.914062 151.808594 151.027344 153.980469 148.359375 155.027344 C 145.691406 156.078125 141.839844 155.164062 139.742188 152.722656 C 137.644531 150.265625 137.78125 149.5 141.988281 146.96875 C 146.199219 144.453125 145.136719 142.625 146.261719 140.246094 C 147.335938 137.949219 152.558594 135.789062 156.570312 136.753906 C 156.570312 136.753906 159 136.53125 160.421875 137.234375 C 161.839844 137.949219 165.765625 141.183594 164.902344 143.019531 C 169.605469 147.363281 175.164062 152.632812 179.199219 154.113281 C 186.0625 156.632812 203.867188 156.78125 208.644531 155.792969 C 213.410156 154.820312 214.039062 146.761719 214.039062 146.761719 C 214.039062 146.761719 216.59375 146.476562 217.222656 151.238281 C 217.851562 156.003906 215.125 158.101562 214.421875 159.296875 C 213.71875 160.496094 214.496094 160.210938 217.222656 163.925781 C 219.953125 167.640625 219.050781 175.488281 218.558594 179.203125 C 218.261719 181.460938 220.074219 183.582031 221.851562 185.175781 L 223.953125 186.890625 C 224.234375 187.113281 224.484375 187.308594 224.65625 187.472656 C 225.261719 187.964844 226.175781 189.433594 226.707031 190.347656 L 226.667969 190.839844 C 226.679688 193.554688 226.679688 199.082031 226.765625 199.601562 C 226.816406 199.886719 226.074219 201.292969 225.421875 202.488281 C 225.324219 202.882812 225.089844 203.253906 224.828125 203.550781 C 224.59375 203.957031 224.433594 204.230469 224.433594 204.230469 L 218.027344 204.230469 C 218.027344 204.230469 218.148438 203.785156 218.347656 203.242188 C 218.234375 202.847656 218.164062 202.476562 218.210938 202.265625 C 218.261719 202.019531 218.976562 201.464844 219.71875 200.945312 C 220.433594 200.179688 221.382812 199.292969 221.382812 199.292969 L 221.382812 193.800781 C 221.382812 193.800781 217.015625 189.839844 213.050781 188.210938 C 209.089844 186.582031 206.953125 180.769531 205.839844 180.867188 C 205.804688 180.867188 205.792969 180.867188 205.792969 180.867188 C 205.78125 180.855469 202.753906 175.328125 200.925781 174.601562 C 196.113281 174.453125 188.644531 176.511719 185.308594 178.4375 C 180.679688 181.101562 171.988281 181.101562 171.855469 182.644531 C 171.71875 184.1875 172.902344 194.28125 172.902344 197.566406 C 172.902344 200.316406 170.707031 203.304688 169.976562 204.214844 L 162.976562 204.214844 C 162.902344 203.722656 162.753906 202.675781 162.816406 202.042969 C 162.890625 201.207031 164.433594 200.921875 166.398438 199.09375 C 168.335938 197.28125 165.457031 183.472656 164.828125 180.535156 Z M 164.828125 180.535156 " fill-opacity="1" fill-rule="evenodd"/></g><path fill="#ffffff" d="M 205.78125 180.867188 C 205.792969 180.882812 206.335938 180.894531 205.78125 180.894531 Z M 164.828125 180.535156 C 164.199219 177.597656 162.445312 176.683594 159.644531 172.195312 C 156.839844 167.714844 159.359375 162.59375 156.136719 157.199219 C 152.914062 151.808594 151.027344 153.980469 148.359375 155.027344 L 148.210938 155.089844 C 149.839844 151.546875 152.71875 146.773438 155.125 144.589844 C 158.285156 141.738281 159.929688 140.195312 164.136719 140.429688 C 164.839844 141.355469 165.25 142.292969 164.902344 143.019531 C 169.605469 147.363281 175.164062 152.632812 179.199219 154.113281 C 186.0625 156.632812 203.867188 156.78125 208.644531 155.792969 C 213.410156 154.820312 214.039062 146.761719 214.039062 146.761719 C 214.039062 146.761719 216.59375 146.476562 217.222656 151.238281 C 217.851562 156.003906 215.125 158.101562 214.421875 159.296875 C 213.71875 160.496094 214.496094 160.210938 217.222656 163.925781 C 219.410156 166.886719 219.261719 172.476562 218.878906 176.5 C 218.457031 177.007812 217.988281 177.4375 217.445312 177.757812 C 213.421875 180.191406 211 183.289062 211.164062 185.460938 C 211.1875 185.78125 211.164062 186.324219 211.101562 187.015625 C 208.347656 184.71875 206.742188 180.792969 205.828125 180.867188 C 205.792969 180.867188 205.78125 180.867188 205.78125 180.867188 C 205.765625 180.855469 202.742188 175.328125 200.914062 174.601562 C 196.101562 174.453125 188.632812 176.511719 185.296875 178.425781 C 183.074219 179.707031 179.925781 180.363281 177.222656 180.882812 C 173.285156 180.917969 170.730469 181.558594 170.730469 181.558594 C 170.730469 181.558594 168.925781 185.324219 166.296875 188.371094 C 165.765625 184.964844 165.101562 181.78125 164.828125 180.535156 Z M 164.828125 180.535156 " fill-opacity="1" fill-rule="evenodd"/><g fill="#000000" fill-opacity="1"><g transform="translate(50.191407, 228.717671)"><g><path d="M 0.738281 0 L 3.320312 0 L 4.480469 -2.28125 L 13.636719 -2.28125 L 14.796875 0 L 17.394531 0 L 10.277344 -14.195312 L 7.839844 -14.195312 Z M 9.058594 -11.296875 L 12.578125 -4.378906 L 5.539062 -4.378906 Z M 9.058594 -11.296875 "/></g></g></g><g fill="#000000" fill-opacity="1"><g transform="translate(68.304257, 228.717671)"><g><path d="M 1.539062 0 L 3.980469 0 L 3.980469 -10.835938 L 13.777344 0 L 16.234375 0 L 16.234375 -13.996094 L 13.777344 -13.996094 L 13.777344 -3.160156 L 3.980469 -13.996094 L 1.539062 -13.996094 Z M 1.539062 0 "/></g></g></g><g fill="#000000" fill-opacity="1"><g transform="translate(86.057258, 228.717671)"><g><path d="M 1.539062 0 L 3.980469 0 L 3.980469 -13.996094 L 1.539062 -13.996094 Z M 1.539062 0 "/></g></g></g><g fill="#000000" fill-opacity="1"><g transform="translate(91.555091, 228.717671)"><g><path d="M 1.539062 0 L 3.980469 0 L 3.980469 -9.757812 L 9.675781 0 L 10.578125 0 L 16.277344 -9.757812 L 16.277344 0 L 18.734375 0 L 18.734375 -13.996094 L 16.277344 -13.996094 L 10.136719 -3.4375 L 3.980469 -13.996094 L 1.539062 -13.996094 Z M 1.539062 0 "/></g></g></g><g fill="#000000" fill-opacity="1"><g transform="translate(111.807104, 228.717671)"><g><path d="M 0.738281 0 L 3.320312 0 L 4.480469 -2.28125 L 13.636719 -2.28125 L 14.796875 0 L 17.394531 0 L 10.277344 -14.195312 L 7.839844 -14.195312 Z M 9.058594 -11.296875 L 12.578125 -4.378906 L 5.539062 -4.378906 Z M 9.058594 -11.296875 "/></g></g></g><g fill="#000000" fill-opacity="1"><g transform="translate(129.919953, 228.717671)"><g><path d="M 3.980469 -2.097656 L 3.980469 -13.996094 L 1.539062 -13.996094 L 1.539062 0 L 13.757812 0 L 13.757812 -2.097656 Z M 3.980469 -2.097656 "/></g></g></g><g fill="#000000" fill-opacity="1"><g transform="translate(144.43423, 228.717671)"><g/></g></g><g fill="#000000" fill-opacity="1"><g transform="translate(149.292316, 228.717671)"><g><path d="M 1.539062 0 L 3.980469 0 L 3.980469 -9.757812 L 9.675781 0 L 10.578125 0 L 16.277344 -9.757812 L 16.277344 0 L 18.734375 0 L 18.734375 -13.996094 L 16.277344 -13.996094 L 10.136719 -3.4375 L 3.980469 -13.996094 L 1.539062 -13.996094 Z M 1.539062 0 "/></g></g></g><g fill="#000000" fill-opacity="1"><g transform="translate(169.544329, 228.717671)"><g><path d="M 0.738281 0 L 3.320312 0 L 4.480469 -2.28125 L 13.636719 -2.28125 L 14.796875 0 L 17.394531 0 L 10.277344 -14.195312 L 7.839844 -14.195312 Z M 9.058594 -11.296875 L 12.578125 -4.378906 L 5.539062 -4.378906 Z M 9.058594 -11.296875 "/></g></g></g><g fill="#000000" fill-opacity="1"><g transform="translate(187.657178, 228.717671)"><g><path d="M 1.539062 0 L 3.980469 0 L 3.980469 -10.835938 L 13.777344 0 L 16.234375 0 L 16.234375 -13.996094 L 13.777344 -13.996094 L 13.777344 -3.160156 L 3.980469 -13.996094 L 1.539062 -13.996094 Z M 1.539062 0 "/></g></g></g><g fill="#000000" fill-opacity="1"><g transform="translate(205.410179, 228.717671)"><g><path d="M 0.738281 0 L 3.320312 0 L 4.480469 -2.28125 L 13.636719 -2.28125 L 14.796875 0 L 17.394531 0 L 10.277344 -14.195312 L 7.839844 -14.195312 Z M 9.058594 -11.296875 L 12.578125 -4.378906 L 5.539062 -4.378906 Z M 9.058594 -11.296875 "/></g></g></g><g fill="#000000" fill-opacity="1"><g transform="translate(223.523028, 228.717671)"><g><path d="M 15.496094 -7.636719 L 9.539062 -7.636719 L 9.539062 -5.957031 L 13.117188 -5.957031 L 13.117188 -5.71875 C 13.117188 -3.71875 11.675781 -2 9.078125 -2 C 5.539062 -2 3.757812 -4.5 3.757812 -7 C 3.757812 -9.496094 5.539062 -11.996094 9.078125 -11.996094 C 10.757812 -11.996094 12.597656 -11.15625 13.65625 -9.796875 L 15.574219 -11.355469 C 14.078125 -13.296875 11.636719 -14.375 8.996094 -14.375 C 5.398438 -14.375 1.160156 -11.917969 1.160156 -7 C 1.160156 -2.078125 5.378906 0.378906 8.996094 0.378906 C 10.757812 0.378906 12.4375 -0.21875 13.675781 -1.359375 L 14.238281 0 L 15.496094 0 Z M 15.496094 -7.636719 "/></g></g></g><g fill="#000000" fill-opacity="1"><g transform="translate(240.056501, 228.717671)"><g><path d="M 3.980469 -2.097656 L 3.980469 -5.957031 L 12.535156 -5.957031 L 12.535156 -8.058594 L 3.980469 -8.058594 L 3.980469 -11.898438 L 13.898438 -11.898438 L 13.898438 -13.996094 L 1.539062 -13.996094 L 1.539062 0 L 14.015625 0 L 14.015625 -2.097656 Z M 3.980469 -2.097656 "/></g></g></g><g fill="#000000" fill-opacity="1"><g transform="translate(255.050572, 228.717671)"><g><path d="M 1.539062 0 L 3.980469 0 L 3.980469 -9.757812 L 9.675781 0 L 10.578125 0 L 16.277344 -9.757812 L 16.277344 0 L 18.734375 0 L 18.734375 -13.996094 L 16.277344 -13.996094 L 10.136719 -3.4375 L 3.980469 -13.996094 L 1.539062 -13.996094 Z M 1.539062 0 "/></g></g></g><g fill="#000000" fill-opacity="1"><g transform="translate(275.302585, 228.717671)"><g><path d="M 3.980469 -2.097656 L 3.980469 -5.957031 L 12.535156 -5.957031 L 12.535156 -8.058594 L 3.980469 -8.058594 L 3.980469 -11.898438 L 13.898438 -11.898438 L 13.898438 -13.996094 L 1.539062 -13.996094 L 1.539062 0 L 14.015625 0 L 14.015625 -2.097656 Z M 3.980469 -2.097656 "/></g></g></g><g fill="#000000" fill-opacity="1"><g transform="translate(290.296679, 228.717671)"><g><path d="M 1.539062 0 L 3.980469 0 L 3.980469 -10.835938 L 13.777344 0 L 16.234375 0 L 16.234375 -13.996094 L 13.777344 -13.996094 L 13.777344 -3.160156 L 3.980469 -13.996094 L 1.539062 -13.996094 Z M 1.539062 0 "/></g></g></g><g fill="#000000" fill-opacity="1"><g transform="translate(308.049668, 228.717671)"><g><path d="M 0.558594 -13.996094 L 0.558594 -11.9375 L 7.136719 -11.9375 L 7.136719 0 L 9.597656 0 L 9.597656 -11.9375 L 16.175781 -11.9375 L 16.175781 -13.996094 Z M 0.558594 -13.996094 "/></g></g></g><g fill="#000000" fill-opacity="1"><g transform="translate(136.574292, 250.895988)"><g><path d="M 0.890625 0 L 0.890625 -7.390625 L 3.390625 -7.390625 C 3.972656 -7.390625 4.445312 -7.285156 4.8125 -7.078125 C 5.1875 -6.867188 5.460938 -6.585938 5.640625 -6.234375 C 5.816406 -5.890625 5.90625 -5.5 5.90625 -5.0625 C 5.90625 -4.625 5.816406 -4.222656 5.640625 -3.859375 C 5.460938 -3.503906 5.1875 -3.222656 4.8125 -3.015625 C 4.445312 -2.804688 3.976562 -2.703125 3.40625 -2.703125 L 1.796875 -2.703125 L 1.796875 0 Z M 1.796875 -3.5 L 3.375 -3.5 C 3.96875 -3.5 4.390625 -3.644531 4.640625 -3.9375 C 4.898438 -4.238281 5.03125 -4.613281 5.03125 -5.0625 C 5.03125 -5.5 4.898438 -5.863281 4.640625 -6.15625 C 4.390625 -6.457031 3.960938 -6.609375 3.359375 -6.609375 L 1.796875 -6.609375 Z M 1.796875 -3.5 "/></g></g></g><g fill="#000000" fill-opacity="1"><g transform="translate(146.729628, 250.895988)"><g><path d="M 0.890625 0 L 0.890625 -7.390625 L 1.796875 -7.390625 L 1.796875 -0.796875 L 5.234375 -0.796875 L 5.234375 0 Z M 0.890625 0 "/></g></g></g><g fill="#000000" fill-opacity="1"><g transform="translate(156.148079, 250.895988)"><g><path d="M 1.203125 0 L 0.265625 0 L 2.96875 -7.390625 L 3.90625 -7.390625 L 6.625 0 L 5.671875 0 L 4.9375 -2.09375 L 1.9375 -2.09375 Z M 2.21875 -2.890625 L 4.65625 -2.890625 L 3.46875 -6.234375 L 3.40625 -6.234375 Z M 2.21875 -2.890625 "/></g></g></g><g fill="#000000" fill-opacity="1"><g transform="translate(166.72244, 250.895988)"><g><path d="M 6.84375 -5.09375 L 5.953125 -5.09375 C 5.878906 -5.425781 5.738281 -5.707031 5.53125 -5.9375 C 5.332031 -6.175781 5.085938 -6.351562 4.796875 -6.46875 C 4.503906 -6.59375 4.195312 -6.65625 3.875 -6.65625 C 3.425781 -6.65625 3.019531 -6.539062 2.65625 -6.3125 C 2.289062 -6.09375 2 -5.757812 1.78125 -5.3125 C 1.570312 -4.875 1.46875 -4.335938 1.46875 -3.703125 C 1.46875 -3.054688 1.570312 -2.515625 1.78125 -2.078125 C 2 -1.640625 2.289062 -1.304688 2.65625 -1.078125 C 3.019531 -0.847656 3.425781 -0.734375 3.875 -0.734375 C 4.195312 -0.734375 4.503906 -0.789062 4.796875 -0.90625 C 5.085938 -1.03125 5.332031 -1.207031 5.53125 -1.4375 C 5.738281 -1.675781 5.878906 -1.96875 5.953125 -2.3125 L 6.84375 -2.3125 C 6.757812 -1.800781 6.570312 -1.363281 6.28125 -1 C 6 -0.644531 5.648438 -0.375 5.234375 -0.1875 C 4.816406 0 4.363281 0.09375 3.875 0.09375 C 3.238281 0.09375 2.675781 -0.0546875 2.1875 -0.359375 C 1.695312 -0.671875 1.3125 -1.109375 1.03125 -1.671875 C 0.75 -2.242188 0.609375 -2.921875 0.609375 -3.703125 C 0.609375 -4.484375 0.75 -5.15625 1.03125 -5.71875 C 1.3125 -6.289062 1.695312 -6.726562 2.1875 -7.03125 C 2.675781 -7.34375 3.238281 -7.5 3.875 -7.5 C 4.363281 -7.5 4.816406 -7.398438 5.234375 -7.203125 C 5.648438 -7.015625 6 -6.738281 6.28125 -6.375 C 6.570312 -6.019531 6.757812 -5.59375 6.84375 -5.09375 Z M 6.84375 -5.09375 "/></g></g></g><g fill="#000000" fill-opacity="1"><g transform="translate(177.816959, 250.895988)"><g><path d="M 0.890625 0 L 0.890625 -7.390625 L 5.359375 -7.390625 L 5.359375 -6.609375 L 1.796875 -6.609375 L 1.796875 -4.109375 L 5.125 -4.109375 L 5.125 -3.3125 L 1.796875 -3.3125 L 1.796875 -0.796875 L 5.421875 -0.796875 L 5.421875 0 Z M 0.890625 0 "/></g></g></g><g fill="#000000" fill-opacity="1"><g transform="translate(187.596633, 250.895988)"><g><path d="M 0.890625 -7.390625 L 1.96875 -7.390625 L 4.484375 -1.25 L 4.5625 -1.25 L 7.078125 -7.390625 L 8.15625 -7.390625 L 8.15625 0 L 7.3125 0 L 7.3125 -5.625 L 7.234375 -5.625 L 4.921875 0 L 4.125 0 L 1.8125 -5.625 L 1.734375 -5.625 L 1.734375 0 L 0.890625 0 Z M 0.890625 -7.390625 "/></g></g></g><g fill="#000000" fill-opacity="1"><g transform="translate(200.569506, 250.895988)"><g><path d="M 0.890625 0 L 0.890625 -7.390625 L 5.359375 -7.390625 L 5.359375 -6.609375 L 1.796875 -6.609375 L 1.796875 -4.109375 L 5.125 -4.109375 L 5.125 -3.3125 L 1.796875 -3.3125 L 1.796875 -0.796875 L 5.421875 -0.796875 L 5.421875 0 Z M 0.890625 0 "/></g></g></g><g fill="#000000" fill-opacity="1"><g transform="translate(210.34918, 250.895988)"><g><path d="M 6.765625 -7.390625 L 6.765625 0 L 5.890625 0 L 1.859375 -5.8125 L 1.796875 -5.8125 L 1.796875 0 L 0.890625 0 L 0.890625 -7.390625 L 1.765625 -7.390625 L 5.8125 -1.578125 L 5.875 -1.578125 L 5.875 -7.390625 Z M 6.765625 -7.390625 "/></g></g></g><g fill="#000000" fill-opacity="1"><g transform="translate(221.703778, 250.895988)"><g><path d="M 0.484375 -6.609375 L 0.484375 -7.390625 L 6.046875 -7.390625 L 6.046875 -6.609375 L 3.71875 -6.609375 L 3.71875 0 L 2.8125 0 L 2.8125 -6.609375 Z M 0.484375 -6.609375 "/></g></g></g><g fill="#000000" fill-opacity="1"><g transform="translate(231.931363, 250.895988)"><g><path d="M 4.9375 -5.546875 C 4.894531 -5.910156 4.71875 -6.191406 4.40625 -6.390625 C 4.101562 -6.597656 3.726562 -6.703125 3.28125 -6.703125 C 2.789062 -6.703125 2.394531 -6.582031 2.09375 -6.34375 C 1.789062 -6.113281 1.640625 -5.820312 1.640625 -5.46875 C 1.640625 -5.207031 1.722656 -4.992188 1.890625 -4.828125 C 2.054688 -4.671875 2.25 -4.546875 2.46875 -4.453125 C 2.6875 -4.359375 2.890625 -4.289062 3.078125 -4.25 L 3.828125 -4.046875 C 4.023438 -3.992188 4.238281 -3.921875 4.46875 -3.828125 C 4.707031 -3.742188 4.9375 -3.625 5.15625 -3.46875 C 5.375 -3.320312 5.550781 -3.128906 5.6875 -2.890625 C 5.832031 -2.648438 5.90625 -2.359375 5.90625 -2.015625 C 5.90625 -1.609375 5.800781 -1.242188 5.59375 -0.921875 C 5.382812 -0.597656 5.082031 -0.34375 4.6875 -0.15625 C 4.289062 0.03125 3.804688 0.125 3.234375 0.125 C 2.441406 0.125 1.8125 -0.0625 1.34375 -0.4375 C 0.875 -0.8125 0.617188 -1.300781 0.578125 -1.90625 L 1.5 -1.90625 C 1.519531 -1.625 1.613281 -1.390625 1.78125 -1.203125 C 1.945312 -1.023438 2.15625 -0.890625 2.40625 -0.796875 C 2.664062 -0.710938 2.941406 -0.671875 3.234375 -0.671875 C 3.578125 -0.671875 3.882812 -0.726562 4.15625 -0.84375 C 4.425781 -0.957031 4.640625 -1.113281 4.796875 -1.3125 C 4.960938 -1.519531 5.046875 -1.753906 5.046875 -2.015625 C 5.046875 -2.265625 4.972656 -2.46875 4.828125 -2.625 C 4.691406 -2.78125 4.507812 -2.90625 4.28125 -3 C 4.0625 -3.09375 3.820312 -3.175781 3.5625 -3.25 L 2.65625 -3.515625 C 2.082031 -3.679688 1.625 -3.914062 1.28125 -4.21875 C 0.945312 -4.53125 0.78125 -4.9375 0.78125 -5.4375 C 0.78125 -5.84375 0.890625 -6.203125 1.109375 -6.515625 C 1.335938 -6.828125 1.640625 -7.066406 2.015625 -7.234375 C 2.398438 -7.410156 2.832031 -7.5 3.3125 -7.5 C 3.789062 -7.5 4.210938 -7.410156 4.578125 -7.234375 C 4.953125 -7.066406 5.25 -6.835938 5.46875 -6.546875 C 5.6875 -6.253906 5.800781 -5.921875 5.8125 -5.546875 Z M 4.9375 -5.546875 "/></g></g></g><path stroke-linecap="butt" transform="matrix(0.749756, 0, 0, 0.75, 90.335924, 247.145989)" fill="none" stroke-linejoin="miter" d="M 0.0000177819 0.998057 L 48.031279 0.998057 " stroke="#000000" stroke-width="2" stroke-opacity="1" stroke-miterlimit="4"/><path stroke-linecap="butt" transform="matrix(0.749756, 0, 0, 0.75, 248.641805, 247.145989)" fill="none" stroke-linejoin="miter" d="M -0.00157381 0.998057 L 48.029687 0.998057 " stroke="#000000" stroke-width="2" stroke-opacity="1" stroke-miterlimit="4"/></svg>