<svg id="visual" viewBox="0 0 960 540" width="960" height="540" xmlns="http://www.w3.org/2000/svg" xmlns:xlink="http://www.w3.org/1999/xlink" version="1.1"><rect x="0" y="0" width="960" height="540" fill="#eeeeee"></rect><path d="M0 198L26.7 211.7C53.3 225.3 106.7 252.7 160 241.3C213.3 230 266.7 180 320 168.8C373.3 157.7 426.7 185.3 480 218.2C533.3 251 586.7 289 640 301.8C693.3 314.7 746.7 302.3 800 298.8C853.3 295.3 906.7 300.7 933.3 303.3L960 306L960 0L933.3 0C906.7 0 853.3 0 800 0C746.7 0 693.3 0 640 0C586.7 0 533.3 0 480 0C426.7 0 373.3 0 320 0C266.7 0 213.3 0 160 0C106.7 0 53.3 0 26.7 0L0 0Z" fill="#d3d3d3" stroke-linecap="round" stroke-linejoin="miter"></path></svg>